<?xml version="1.0" encoding="utf-8"?>
<!-- Generator: Adobe Illustrator 15.1.0, SVG Export Plug-In . SVG Version: 6.00 Build 0)  -->
<!DOCTYPE svg PUBLIC "-//W3C//DTD SVG 1.1//EN" "http://www.w3.org/Graphics/SVG/1.1/DTD/svg11.dtd">
<svg version="1.1" id="Layer_2" xmlns="http://www.w3.org/2000/svg" xmlns:xlink="http://www.w3.org/1999/xlink" x="0px" y="0px"
	 width="158.897px" height="545.188px" viewBox="0 0 158.897 545.188" enable-background="new 0 0 158.897 545.188"
	 xml:space="preserve">
<linearGradient id="SVGID_1_" gradientUnits="userSpaceOnUse" x1="38.5703" y1="79.8643" x2="74.791" y2="79.8643">
	<stop  offset="0" style="stop-color:#89A3B1"/>
	<stop  offset="0.5393" style="stop-color:#507282"/>
	<stop  offset="1" style="stop-color:#1E4554"/>
</linearGradient>
<path fill="url(#SVGID_1_)" stroke="#000000" stroke-miterlimit="10" d="M38.57,55.486c0,0,3.221,48.756,36.221,48.756
	c0-17.323,0-48.692,0-48.692L38.57,55.486z"/>
<linearGradient id="SVGID_3_" gradientUnits="userSpaceOnUse" x1="92.3496" y1="79.8643" x2="128.5703" y2="79.8643" gradientTransform="matrix(-1 0 0 1 203.3613 0)">
	<stop  offset="0" style="stop-color:#89A3B1"/>
	<stop  offset="0.5393" style="stop-color:#507282"/>
	<stop  offset="1" style="stop-color:#1E4554"/>
</linearGradient>
<path fill="url(#SVGID_3_)" stroke="#000000" stroke-miterlimit="10" d="M111.012,55.486c0,0-3.221,48.756-36.221,48.756
	c0-17.323,0-48.692,0-48.692L111.012,55.486z"/>
<linearGradient id="SVGID_5_" gradientUnits="userSpaceOnUse" x1="68.1895" y1="506.5615" x2="81.4487" y2="506.5615">
	<stop  offset="0" style="stop-color:#867278"/>
	<stop  offset="0.5" style="stop-color:#5C4A56"/>
	<stop  offset="1" style="stop-color:#433545"/>
</linearGradient>
<path fill="url(#SVGID_5_)" stroke="#000000" stroke-miterlimit="10" d="M68.189,490.01c8.605,3.289,3.652,33.217,7.602,33.217
	s0.142-33.331,5.658-33.331"/>
<linearGradient id="SVGID_7_" gradientUnits="userSpaceOnUse" x1="38.791" y1="53.5498" x2="110.791" y2="53.5498">
	<stop  offset="0.0281" style="stop-color:#7E491F"/>
	<stop  offset="0.2528" style="stop-color:#AA7049"/>
	<stop  offset="0.3933" style="stop-color:#DCB887"/>
	<stop  offset="0.5" style="stop-color:#B98957"/>
	<stop  offset="0.6348" style="stop-color:#855135"/>
	<stop  offset="0.764" style="stop-color:#DCB887"/>
	<stop  offset="0.8012" style="stop-color:#C9A47A"/>
	<stop  offset="0.8392" style="stop-color:#BE9872"/>
	<stop  offset="0.8764" style="stop-color:#BA946F"/>
	<stop  offset="0.9775" style="stop-color:#7E491F"/>
</linearGradient>
<rect x="38.791" y="52.05" fill="url(#SVGID_7_)" stroke="#000000" stroke-miterlimit="10" width="72" height="3"/>
<rect x="47.791" y="39.05" fill="#C7B299" stroke="#000000" stroke-miterlimit="10" width="54" height="13"/>
<linearGradient id="SVGID_10_" gradientUnits="userSpaceOnUse" x1="24.2373" y1="192.8516" x2="36.791" y2="192.8516">
	<stop  offset="0" style="stop-color:#89A3B1"/>
	<stop  offset="0.5393" style="stop-color:#507282"/>
	<stop  offset="1" style="stop-color:#1E4554"/>
</linearGradient>
<path fill="url(#SVGID_10_)" stroke="#000000" stroke-miterlimit="10" d="M24.237,173.486c0,0,1.554,38.73,12.554,38.73
	c0-13.761,0-38.68,0-38.68L24.237,173.486z"/>
<linearGradient id="SVGID_12_" gradientUnits="userSpaceOnUse" x1="154.0156" y1="192.8516" x2="166.5703" y2="192.8516" gradientTransform="matrix(-1 0 0 1 203.3613 0)">
	<stop  offset="0" style="stop-color:#89A3B1"/>
	<stop  offset="0.5393" style="stop-color:#507282"/>
	<stop  offset="1" style="stop-color:#1E4554"/>
</linearGradient>
<path fill="url(#SVGID_12_)" stroke="#000000" stroke-miterlimit="10" d="M49.345,173.486c0,0-0.554,38.73-12.554,38.73
	c0-13.761,0-38.68,0-38.68L49.345,173.486z"/>
<linearGradient id="SVGID_14_" gradientUnits="userSpaceOnUse" x1="98.2373" y1="192.8516" x2="110.791" y2="192.8516">
	<stop  offset="0" style="stop-color:#89A3B1"/>
	<stop  offset="0.5393" style="stop-color:#507282"/>
	<stop  offset="1" style="stop-color:#1E4554"/>
</linearGradient>
<path fill="url(#SVGID_14_)" stroke="#000000" stroke-miterlimit="10" d="M98.237,173.486c0,0,1.554,38.73,12.554,38.73
	c0-13.761,0-38.68,0-38.68L98.237,173.486z"/>
<linearGradient id="SVGID_16_" gradientUnits="userSpaceOnUse" x1="80.0156" y1="192.8516" x2="92.5703" y2="192.8516" gradientTransform="matrix(-1 0 0 1 203.3613 0)">
	<stop  offset="0" style="stop-color:#89A3B1"/>
	<stop  offset="0.5393" style="stop-color:#507282"/>
	<stop  offset="1" style="stop-color:#1E4554"/>
</linearGradient>
<path fill="url(#SVGID_16_)" stroke="#000000" stroke-miterlimit="10" d="M123.346,173.486c0,0-0.555,38.73-12.555,38.73
	c0-13.761,0-38.68,0-38.68L123.346,173.486z"/>
<linearGradient id="SVGID_18_" gradientUnits="userSpaceOnUse" x1="23.791" y1="171.5498" x2="123.791" y2="171.5498">
	<stop  offset="0.0281" style="stop-color:#7E491F"/>
	<stop  offset="0.2528" style="stop-color:#AA7049"/>
	<stop  offset="0.3933" style="stop-color:#DCB887"/>
	<stop  offset="0.5" style="stop-color:#B98957"/>
	<stop  offset="0.6348" style="stop-color:#855135"/>
	<stop  offset="0.764" style="stop-color:#DCB887"/>
	<stop  offset="0.8012" style="stop-color:#C9A47A"/>
	<stop  offset="0.8392" style="stop-color:#BE9872"/>
	<stop  offset="0.8764" style="stop-color:#BA946F"/>
	<stop  offset="0.9775" style="stop-color:#7E491F"/>
</linearGradient>
<rect x="23.791" y="170.05" fill="url(#SVGID_18_)" stroke="#000000" stroke-miterlimit="10" width="100" height="3"/>
<rect x="47.791" y="157.05" fill="#C7B299" stroke="#000000" stroke-miterlimit="10" width="54" height="13"/>
<linearGradient id="SVGID_21_" gradientUnits="userSpaceOnUse" x1="24.2373" y1="323.8516" x2="36.791" y2="323.8516">
	<stop  offset="0" style="stop-color:#89A3B1"/>
	<stop  offset="0.5393" style="stop-color:#507282"/>
	<stop  offset="1" style="stop-color:#1E4554"/>
</linearGradient>
<path fill="url(#SVGID_21_)" stroke="#000000" stroke-miterlimit="10" d="M24.237,304.486c0,0,1.554,38.73,12.554,38.73
	c0-13.761,0-38.681,0-38.681L24.237,304.486z"/>
<linearGradient id="SVGID_23_" gradientUnits="userSpaceOnUse" x1="154.0156" y1="323.8516" x2="166.5703" y2="323.8516" gradientTransform="matrix(-1 0 0 1 203.3613 0)">
	<stop  offset="0" style="stop-color:#89A3B1"/>
	<stop  offset="0.5393" style="stop-color:#507282"/>
	<stop  offset="1" style="stop-color:#1E4554"/>
</linearGradient>
<path fill="url(#SVGID_23_)" stroke="#000000" stroke-miterlimit="10" d="M49.345,304.486c0,0-0.554,38.73-12.554,38.73
	c0-13.761,0-38.681,0-38.681L49.345,304.486z"/>
<linearGradient id="SVGID_25_" gradientUnits="userSpaceOnUse" x1="98.2373" y1="323.8516" x2="110.791" y2="323.8516">
	<stop  offset="0" style="stop-color:#89A3B1"/>
	<stop  offset="0.5393" style="stop-color:#507282"/>
	<stop  offset="1" style="stop-color:#1E4554"/>
</linearGradient>
<path fill="url(#SVGID_25_)" stroke="#000000" stroke-miterlimit="10" d="M98.237,304.486c0,0,1.554,38.73,12.554,38.73
	c0-13.761,0-38.681,0-38.681L98.237,304.486z"/>
<linearGradient id="SVGID_27_" gradientUnits="userSpaceOnUse" x1="80.0156" y1="323.8516" x2="92.5703" y2="323.8516" gradientTransform="matrix(-1 0 0 1 203.3613 0)">
	<stop  offset="0" style="stop-color:#89A3B1"/>
	<stop  offset="0.5393" style="stop-color:#507282"/>
	<stop  offset="1" style="stop-color:#1E4554"/>
</linearGradient>
<path fill="url(#SVGID_27_)" stroke="#000000" stroke-miterlimit="10" d="M123.346,304.486c0,0-0.555,38.73-12.555,38.73
	c0-13.761,0-38.681,0-38.681L123.346,304.486z"/>
<linearGradient id="SVGID_29_" gradientUnits="userSpaceOnUse" x1="62.2373" y1="323.8516" x2="74.791" y2="323.8516">
	<stop  offset="0" style="stop-color:#89A3B1"/>
	<stop  offset="0.5393" style="stop-color:#507282"/>
	<stop  offset="1" style="stop-color:#1E4554"/>
</linearGradient>
<path fill="url(#SVGID_29_)" stroke="#000000" stroke-miterlimit="10" d="M62.237,304.486c0,0,1.554,38.73,12.554,38.73
	c0-13.761,0-38.681,0-38.681L62.237,304.486z"/>
<linearGradient id="SVGID_31_" gradientUnits="userSpaceOnUse" x1="116.0156" y1="323.8516" x2="128.5703" y2="323.8516" gradientTransform="matrix(-1 0 0 1 203.3613 0)">
	<stop  offset="0" style="stop-color:#89A3B1"/>
	<stop  offset="0.5393" style="stop-color:#507282"/>
	<stop  offset="1" style="stop-color:#1E4554"/>
</linearGradient>
<path fill="url(#SVGID_31_)" stroke="#000000" stroke-miterlimit="10" d="M87.346,304.486c0,0-0.555,38.73-12.555,38.73
	c0-13.761,0-38.681,0-38.681L87.346,304.486z"/>
<linearGradient id="SVGID_33_" gradientUnits="userSpaceOnUse" x1="23.791" y1="302.5498" x2="123.791" y2="302.5498">
	<stop  offset="0.0281" style="stop-color:#7E491F"/>
	<stop  offset="0.2528" style="stop-color:#AA7049"/>
	<stop  offset="0.3933" style="stop-color:#DCB887"/>
	<stop  offset="0.5" style="stop-color:#B98957"/>
	<stop  offset="0.6348" style="stop-color:#855135"/>
	<stop  offset="0.764" style="stop-color:#DCB887"/>
	<stop  offset="0.8012" style="stop-color:#C9A47A"/>
	<stop  offset="0.8392" style="stop-color:#BE9872"/>
	<stop  offset="0.8764" style="stop-color:#BA946F"/>
	<stop  offset="0.9775" style="stop-color:#7E491F"/>
</linearGradient>
<rect x="23.791" y="301.05" fill="url(#SVGID_33_)" stroke="#000000" stroke-miterlimit="10" width="100" height="3"/>
<rect x="47.791" y="288.05" fill="#C7B299" stroke="#000000" stroke-miterlimit="10" width="54" height="13"/>
<linearGradient id="SVGID_36_" gradientUnits="userSpaceOnUse" x1="38.5703" y1="465.8643" x2="74.791" y2="465.8643">
	<stop  offset="0" style="stop-color:#89A3B1"/>
	<stop  offset="0.5393" style="stop-color:#507282"/>
	<stop  offset="1" style="stop-color:#1E4554"/>
</linearGradient>
<path fill="url(#SVGID_36_)" stroke="#000000" stroke-miterlimit="10" d="M38.57,441.486c0,0,3.221,48.756,36.221,48.756
	c0-17.323,0-48.692,0-48.692L38.57,441.486z"/>
<linearGradient id="SVGID_38_" gradientUnits="userSpaceOnUse" x1="92.3496" y1="465.8643" x2="128.5703" y2="465.8643" gradientTransform="matrix(-1 0 0 1 203.3613 0)">
	<stop  offset="0" style="stop-color:#89A3B1"/>
	<stop  offset="0.5393" style="stop-color:#507282"/>
	<stop  offset="1" style="stop-color:#1E4554"/>
</linearGradient>
<path fill="url(#SVGID_38_)" stroke="#000000" stroke-miterlimit="10" d="M111.012,441.486c0,0-3.221,48.756-36.221,48.756
	c0-17.323,0-48.692,0-48.692L111.012,441.486z"/>
<linearGradient id="SVGID_40_" gradientUnits="userSpaceOnUse" x1="38.791" y1="439.5498" x2="110.791" y2="439.5498">
	<stop  offset="0.0281" style="stop-color:#7E491F"/>
	<stop  offset="0.2528" style="stop-color:#AA7049"/>
	<stop  offset="0.3933" style="stop-color:#DCB887"/>
	<stop  offset="0.5" style="stop-color:#B98957"/>
	<stop  offset="0.6348" style="stop-color:#855135"/>
	<stop  offset="0.764" style="stop-color:#DCB887"/>
	<stop  offset="0.8012" style="stop-color:#C9A47A"/>
	<stop  offset="0.8392" style="stop-color:#BE9872"/>
	<stop  offset="0.8764" style="stop-color:#BA946F"/>
	<stop  offset="0.9775" style="stop-color:#7E491F"/>
</linearGradient>
<rect x="38.791" y="438.05" fill="url(#SVGID_40_)" stroke="#000000" stroke-miterlimit="10" width="72" height="3"/>
<rect x="47.791" y="425.05" fill="#C7B299" stroke="#000000" stroke-miterlimit="10" width="54" height="13"/>
<text transform="matrix(1 0 0 1 13.3452 25.5493)" font-family="'MyriadPro-Regular'" font-size="12">Monohull</text>
<text transform="matrix(1 0 0 1 13.3452 129.8823)"><tspan x="0" y="0" font-family="'MyriadPro-Regular'" font-size="12">Multihull</tspan><tspan x="0" y="14.4" font-family="'MyriadPro-Regular'" font-size="12">Catamaran</tspan></text>
<text transform="matrix(1 0 0 1 13.3452 258.2158)"><tspan x="0" y="0" font-family="'MyriadPro-Regular'" font-size="12">Multihull</tspan><tspan x="0" y="14.4" font-family="'MyriadPro-Regular'" font-size="12">Trimaran</tspan></text>
<text transform="matrix(1 0 0 1 13.3452 395.5488)"><tspan x="0" y="0" font-family="'MyriadPro-Regular'" font-size="12">Monohull</tspan><tspan x="0" y="14.399" font-family="'MyriadPro-Regular'" font-size="12"> with deep keel</tspan></text>
</svg>
